<svg width="500" height="169" xmlns="http://www.w3.org/2000/svg" xmlns:xlink="http://www.w3.org/1999/xlink" xml:space="preserve" overflow="hidden"><defs><clipPath id="clip0"><rect x="390" y="101" width="500" height="169"/></clipPath><linearGradient x1="51.9228" y1="125.239" x2="103.607" y2="35.7186" gradientUnits="userSpaceOnUse" spreadMethod="pad" id="fill1"><stop offset="0" stop-color="#CD163F"/><stop offset="0.28" stop-color="#CD163F"/><stop offset="0.9" stop-color="#F58025"/><stop offset="1" stop-color="#F58025"/></linearGradient></defs><g clip-path="url(#clip0)" transform="translate(-390 -101)"><path d="M263.441 97.006C253.868 97.006 248.162 101.977 248.162 110.446 248.162 118.916 253.868 123.837 263.441 123.837 273.015 123.837 278.77 118.867 278.77 110.446 278.77 102.026 273.044 97.006 263.441 97.006ZM263.441 116.401C260.628 116.401 258.729 113.986 258.729 110.437 258.729 106.888 260.628 104.382 263.441 104.382 266.255 104.382 268.153 106.758 268.153 110.427 268.153 114.095 266.344 116.401 263.441 116.401Z" fill="#CD163F" transform="matrix(1.00592 0 0 1 390 101)"/><path d="M384.197 119.493C384.18 121.541 385.827 123.214 387.875 123.231 387.875 123.231 387.875 123.231 387.875 123.231L395.042 123.231 395.042 97.6621 384.197 97.6621Z" fill="#CD163F" transform="matrix(1.00592 0 0 1 390 101)"/><path d="M384.197 89.2718 395.042 89.2718 395.042 94.5605 384.197 94.5605Z" fill="#CD163F" transform="matrix(1.00592 0 0 1 390 101)"/><path d="M414.656 97.006C405.083 97.006 399.367 101.977 399.367 110.446 399.367 118.916 405.083 123.837 414.656 123.837 424.23 123.837 429.986 118.867 429.986 110.446 429.986 102.026 424.25 97.006 414.656 97.006ZM414.656 116.401C411.833 116.401 409.944 113.986 409.944 110.437 409.944 106.888 411.833 104.392 414.656 104.392 417.48 104.392 419.359 106.768 419.359 110.437 419.359 114.105 417.529 116.401 414.656 116.401Z" fill="#CD163F" transform="matrix(1.00592 0 0 1 390 101)"/><path d="M211.956 56.4361C202.392 56.4361 196.676 61.4066 196.676 69.8765 196.676 78.3464 202.392 83.2673 211.956 83.2673 221.519 83.2673 227.295 78.2967 227.295 69.8765 227.295 61.4564 221.559 56.4361 211.956 56.4361ZM211.956 75.8313C209.142 75.8313 207.254 73.4156 207.254 69.8666 207.254 66.3176 209.142 63.8124 211.956 63.8124 214.769 63.8124 216.718 66.1486 216.718 69.8268 216.718 73.5051 214.859 75.8313 211.956 75.8313Z" fill="#CD163F" transform="matrix(1.00592 0 0 1 390 101)"/><path d="M363.42 76.1096C362.247 76.1096 357.405 76.388 353.121 76.388 348.836 76.388 347.156 75.9406 346.301 73.0975L363.658 73.0975C364.108 73.0975 364.473 72.7325 364.473 72.2823L364.473 70.2941C364.473 61.4862 359.801 56.5454 350.854 56.4361 340.863 56.3068 336.181 61.5458 336.181 69.4491 336.181 78.1277 340.764 83.3071 351.669 83.3071 359.463 83.3071 362.992 80.1458 363.688 76.4775 363.708 76.3482 363.549 76.0997 363.42 76.1096ZM350.924 62.361C353.806 62.361 355.099 64.7369 355.099 67.6596L346.152 67.6596C346.172 64.6972 347.176 62.361 350.924 62.361Z" fill="#CD163F" transform="matrix(1.00592 0 0 1 390 101)"/><path d="M379.027 48.7118 371.979 48.7118C369.931 48.7227 368.28 50.3916 368.291 52.4395 368.291 52.4429 368.291 52.4463 368.291 52.4496L368.291 82.6609 379.027 82.6609Z" fill="#CD163F" transform="matrix(1.00592 0 0 1 390 101)"/><path d="M242.674 83.0784C246.305 83.2939 249.948 83.0062 253.5 82.2235 253.929 82.1129 254.233 81.7318 254.246 81.289L254.246 75.0459C254.246 75.0459 252.257 75.2646 247.545 75.2646 243.459 75.2646 240.924 73.1571 240.924 69.7572 240.924 66.3574 243.31 64.2101 247.158 64.2101 249.532 64.1733 251.904 64.3563 254.246 64.7568L254.246 58.4342C254.25 57.9875 253.937 57.6 253.5 57.5097 250.155 56.7454 246.731 56.385 243.3 56.4361 235.347 56.9033 230.377 61.5558 230.377 69.8069 230.347 77.6207 235.009 82.3726 242.674 83.0784Z" fill="#CD163F" transform="matrix(1.00592 0 0 1 390 101)"/><path d="M349.502 97.5726 349.502 100.883C347.925 98.31 345.081 96.7892 342.066 96.9066 333.974 96.9066 329.401 101.877 329.401 110.307L329.401 110.397C329.401 118.787 333.974 123.788 342.066 123.788 345.069 123.918 347.91 122.421 349.502 119.871L349.502 120.427C349.491 121.937 350.706 123.17 352.216 123.181 352.219 123.181 352.223 123.181 352.226 123.181L359.741 123.181 359.741 97.5726 349.502 97.5726ZM344.8 116.401C341.986 116.401 340.088 113.986 340.088 110.437 340.088 106.888 341.986 104.472 344.8 104.472 347.613 104.472 349.502 106.778 349.502 110.437 349.502 114.095 347.703 116.401 344.8 116.401Z" fill="#CD163F" transform="matrix(1.00592 0 0 1 390 101)"/><path d="M324.599 57.0822 321.617 73.8232 318.237 57.0822 305.97 57.0822 302.59 73.8232 299.557 57.0822 289.388 57.0822 278.8 56.9928C277.12 57.0519 275.602 58.0085 274.824 59.4979L268.809 68.2462 268.809 48.6124 262.258 48.6124C260.21 48.6233 258.559 50.2922 258.57 52.3401 258.57 52.3435 258.57 52.3469 258.57 52.3502L258.57 82.5814 268.809 82.5814 268.809 69.8467 275.828 80.0762C276.606 81.5657 278.124 82.5222 279.804 82.5814L290.412 82.6609 280.043 68.9918 289.398 57.0624 295.501 82.6211 306.924 82.6211C308.197 82.6069 309.274 81.6732 309.469 80.4142L311.656 65.2539 312.501 65.2539 314.678 80.4142C314.877 81.6748 315.956 82.6076 317.233 82.6211L328.655 82.6211 334.769 57.0425Z" fill="#CD163F" transform="matrix(1.00592 0 0 1 390 101)"/><path d="M214.511 108.727C214.511 113.101 213.109 115.328 210.345 115.328 208.626 115.328 206.866 114.761 206.866 110.536L206.866 97.6124 196.627 97.6124 196.627 112.206C196.627 119.563 200.295 123.599 206.955 123.599 210.083 123.682 213.105 122.461 215.296 120.229L215.296 120.427C215.241 121.941 216.424 123.214 217.938 123.269 217.962 123.27 217.986 123.271 218.01 123.271L224.74 123.271 224.74 97.6621 214.511 97.6621Z" fill="#CD163F" transform="matrix(1.00592 0 0 1 390 101)"/><path d="M316.537 97.0557C313.091 97.005 309.831 98.6095 307.769 101.37 305.954 98.5301 302.755 96.8828 299.388 97.0557 296.385 97.0209 293.504 98.2384 291.436 100.416L291.436 97.6621 282.091 97.6621 282.091 123.271 292.271 123.271 292.271 110.914C292.271 107.603 293.782 105.466 296.098 105.466 297.758 105.466 299.289 106.033 299.289 110.118L299.289 123.271 309.469 123.271 309.469 110.914C309.469 107.554 310.91 105.466 313.246 105.466 314.897 105.466 316.428 106.033 316.428 110.118L316.428 123.271 326.558 123.271 326.558 108.359C326.508 101.082 322.969 97.0557 316.537 97.0557Z" fill="#CD163F" transform="matrix(1.00592 0 0 1 390 101)"/><path d="M451.091 97.006C447.956 96.9265 444.931 98.163 442.75 100.416L442.75 97.6621 433.306 97.6621 433.306 123.271 443.536 123.271 443.536 110.914C443.536 107.514 445.176 105.327 447.701 105.327 449.421 105.327 451.18 105.893 451.18 110.118L451.18 123.271 461.37 123.271 461.37 108.359C461.37 101.052 457.722 97.006 451.091 97.006Z" fill="#CD163F" transform="matrix(1.00592 0 0 1 390 101)"/><path d="M374.295 89.2618 364.066 89.2618 364.066 119.493C364.049 121.541 365.696 123.214 367.744 123.231 367.744 123.231 367.744 123.231 367.744 123.231L374.295 123.231 374.295 105.188 380.479 105.188 380.479 97.6621 374.295 97.6621Z" fill="#CD163F" transform="matrix(1.00592 0 0 1 390 101)"/><path d="M394.903 48.7118 387.855 48.7118C385.807 48.7227 384.156 50.3916 384.167 52.4395 384.167 52.4429 384.167 52.4463 384.167 52.4496L384.167 82.6609 394.903 82.6609Z" fill="#CD163F" transform="matrix(1.00592 0 0 1 390 101)"/><path d="M172.052 89.2618C170.95 89.2626 169.96 89.9367 169.557 90.9618L156.673 123.271 167.39 123.271 169.775 116.859 182.102 116.859 183.405 120.567 183.405 120.567C184.095 122.16 185.646 123.211 187.381 123.261L195.841 123.261 182.252 89.2618ZM172.539 109.244 176.058 99.6503 179.438 109.244Z" fill="#CD163F" transform="matrix(1.00592 0 0 1 390 101)"/><path d="M240.209 89.2817 229.363 89.2817 229.363 119.513C229.346 121.561 230.993 123.234 233.041 123.251 233.041 123.251 233.041 123.251 233.041 123.251L240.209 123.251 240.209 105.207 246.392 105.207 246.392 97.6721 240.209 97.6721Z" fill="#CD163F" transform="matrix(1.00592 0 0 1 390 101)"/><path d="M191.726 69.5882C190.546 68.0839 188.842 67.0795 186.954 66.7749L186.954 66.6954C191.716 66.1287 194.529 62.8779 194.529 57.6588 194.529 51.1275 189.867 48.6024 182.281 48.6024L163.95 48.6024 163.95 82.6012 174.786 82.6012 174.786 70.2145 177.768 70.2145C179.249 70.2145 180.75 70.4531 181.188 71.9841L184.25 80.9311C184.409 81.9102 185.246 82.6348 186.238 82.6509L196.259 82.6509 192.501 71.2782C192.365 70.6666 192.1 70.0906 191.726 69.5882ZM179.21 63.1265 174.965 63.1265 174.965 55.8992 179.408 55.8992C181.625 55.8992 183.713 56.3366 183.713 59.4085 183.683 62.8282 181.476 63.1265 179.21 63.1265Z" fill="#CD163F" transform="matrix(1.00592 0 0 1 390 101)"/><path d="M63.1861 65.4626 102.563 36.2952C102.887 36.0592 102.959 35.6053 102.722 35.2813 102.584 35.091 102.361 34.9797 102.126 34.983L69.8467 34.983C66.1159 34.9897 62.5403 36.4771 59.9055 39.1185L39.3074 59.6471C36.6659 62.2819 35.1785 65.8574 35.1719 69.5882L35.1719 98.7258C35.1785 102.457 36.6659 106.033 39.3074 108.667L59.8658 129.235C62.503 131.873 66.077 133.36 69.8069 133.371L97.8112 133.371C98.2173 133.358 98.5358 133.018 98.5227 132.611 98.5141 132.343 98.3594 132.1 98.1194 131.979L42.5482 105.814C40.2394 104.722 38.7623 102.403 38.7507 99.8492L38.7507 85.9315C38.7467 84.4733 39.4369 83.1002 40.6097 82.2334L48.6223 76.2687 48.6223 65.4626Z" fill="url(#fill1)" transform="matrix(1.00592 0 0 1 390 101)"/><path d="M101.48 76.7161 97.6919 87.0648 105.128 87.0648 101.48 76.7161Z" fill="#BB2332" transform="matrix(1.00592 0 0 1 390 101)"/><path d="M69.5186 77.1336C69.5186 73.8232 67.262 73.346 64.8662 73.346L60.0745 73.346 60.0745 81.1399 64.6972 81.1399C67.1328 81.1399 69.5186 80.8218 69.5186 77.1336Z" fill="#BB2332" transform="matrix(1.00592 0 0 1 390 101)"/><path d="M130.021 60.2236 110.874 41.0769C109.802 40.0262 108.139 39.8764 106.897 40.7191L70.0555 65.572C77.0143 66.0094 81.2492 68.8327 81.2492 75.2845 81.2492 80.9112 78.2669 84.4105 73.0875 85.0169L73.0875 85.1164C75.1176 85.4208 76.9554 86.4872 78.2271 88.0987 78.6351 88.6245 78.9265 89.2311 79.0821 89.8782L81.9849 98.696 94.4412 67.3415C94.8805 66.2381 95.9476 65.5135 97.1352 65.5124L108.14 65.5124 122.764 102.146 113.717 102.146C111.829 102.108 110.136 100.975 109.383 99.2428L109.383 99.2428 107.971 95.2663 94.7096 95.2663 92.1348 102.225 72.2525 102.225C71.1817 102.214 70.2747 101.434 70.1052 100.376L66.8047 90.7729C66.3375 89.1326 64.7071 88.8741 63.1066 88.8741L59.9155 88.8741 59.9155 102.225 48.6223 102.225 48.6223 79.937 41.8623 84.5C41.2439 84.9216 40.8722 85.6204 40.8682 86.3689L40.8682 100.505C40.8661 101.413 41.406 102.235 42.2401 102.593L105.993 129.235C107.174 129.754 108.553 129.494 109.462 128.579L130.001 108.13C132.305 105.834 133.599 102.714 133.599 99.4615L133.599 68.8725C133.6 65.629 132.313 62.5179 130.021 60.2236Z" fill="#CD163F" transform="matrix(1.00592 0 0 1 390 101)"/></g></svg>